<svg xmlns="http://www.w3.org/2000/svg" viewBox="0 0 900 420" font-family="Arial,Helvetica,sans-serif"><defs><marker id="redArr" markerWidth="10" markerHeight="10" refX="8" refY="5" orient="auto" markerUnits="userSpaceOnUse"><path d="M0,0 L10,5 L0,10 Z" fill="#c0392b"/></marker><marker id="grnArr" markerWidth="10" markerHeight="10" refX="8" refY="5" orient="auto" markerUnits="userSpaceOnUse"><path d="M0,0 L10,5 L0,10 Z" fill="#27ae60"/></marker></defs><line x1="160" y1="80" x2="790" y2="80" stroke="#000" stroke-width="3"/><line x1="160" y1="340" x2="790" y2="340" stroke="#000" stroke-width="3"/><line x1="160" y1="80" x2="160" y2="180" stroke="#000" stroke-width="3"/><line x1="160" y1="240" x2="160" y2="340" stroke="#000" stroke-width="3"/><line x1="135" y1="180" x2="185" y2="180" stroke="#000" stroke-width="3"/><line x1="148" y1="200" x2="172" y2="200" stroke="#000" stroke-width="3"/><line x1="135" y1="220" x2="185" y2="220" stroke="#000" stroke-width="3"/><line x1="148" y1="240" x2="172" y2="240" stroke="#000" stroke-width="3"/><text x="195" y="192" font-size="24" font-weight="bold">+</text><text x="195" y="248" font-size="28" font-weight="bold">−</text><text x="100" y="222" font-size="28" font-weight="bold">Vₜ</text><line x1="330" y1="50" x2="450" y2="50" stroke="#c0392b" stroke-width="3" marker-end="url(#redArr)"/><text x="315" y="58" font-size="26" font-weight="bold" fill="#c0392b" text-anchor="end">Iₜ</text><rect x="370" y="120" width="200" height="44" fill="#fff" stroke="#c0392b" stroke-width="2"/><text x="470" y="151" font-size="22" font-weight="bold" fill="#c0392b" text-anchor="middle">Iₜ = I₁ + I₂</text><text x="470" y="205" font-size="22" text-anchor="middle">Vₜ = V₁ = V₂</text><text x="395" y="262" font-size="22" text-anchor="end">R<tspan font-size="14" dy="5">eq</tspan><tspan dy="-5"> =</tspan></text><text x="475" y="252" font-size="20" text-anchor="middle">R₁ · R₂</text><line x1="420" y1="260" x2="530" y2="260" stroke="#000" stroke-width="2"/><text x="475" y="282" font-size="20" text-anchor="middle">R₁ + R₂</text><line x1="680" y1="80" x2="680" y2="170" stroke="#000" stroke-width="3"/><rect x="655" y="170" width="50" height="80" fill="#fff5e0" stroke="#a78a4e" stroke-width="2"/><text x="680" y="222" font-size="28" font-weight="bold" text-anchor="middle">R₁</text><line x1="680" y1="250" x2="680" y2="340" stroke="#000" stroke-width="3"/><line x1="625" y1="195" x2="625" y2="230" stroke="#27ae60" stroke-width="3" marker-end="url(#grnArr)"/><text x="615" y="222" font-size="22" font-weight="bold" fill="#27ae60" text-anchor="end">I₁</text><line x1="790" y1="80" x2="790" y2="170" stroke="#000" stroke-width="3"/><rect x="765" y="170" width="50" height="80" fill="#fff5e0" stroke="#a78a4e" stroke-width="2"/><text x="790" y="222" font-size="28" font-weight="bold" text-anchor="middle">R₂</text><line x1="790" y1="250" x2="790" y2="340" stroke="#000" stroke-width="3"/><line x1="735" y1="195" x2="735" y2="230" stroke="#27ae60" stroke-width="3" marker-end="url(#grnArr)"/><text x="725" y="222" font-size="22" font-weight="bold" fill="#27ae60" text-anchor="end">I₂</text></svg>